<?xml version="1.0" encoding="UTF-8"?><svg id="Layer_2" xmlns="http://www.w3.org/2000/svg" viewBox="0 0 39 39"><defs><style>.cls-1{fill:#d8d8d8;}</style></defs><g id="Layer_1-2"><g id="Layer_2-2"><g id="Layer_1-2"><g id="Page-1"><g id="Group-4-Copy"><circle id="Oval-Copy" class="cls-1" cx="19.5" cy="19.5" r="19.5"/></g><g><path d="m19.5,13.84c-3.07,0-5.61,2.5-5.61,5.61s2.5,5.61,5.61,5.61,5.61-2.54,5.61-5.61-2.54-5.61-5.61-5.61Zm0,9.21c-1.97,0-3.6-1.62-3.6-3.6s1.62-3.6,3.6-3.6,3.6,1.62,3.6,3.6-1.62,3.6-3.6,3.6Z"/><circle cx="25.33" cy="13.71" r="1.27"/><path d="m28.62,10.42c-1.14-1.18-2.76-1.8-4.6-1.8h-9.03c-3.82,0-6.36,2.54-6.36,6.36v8.99c0,1.89.61,3.51,1.84,4.69,1.18,1.14,2.76,1.71,4.56,1.71h8.95c1.89,0,3.46-.61,4.6-1.71,1.18-1.14,1.8-2.76,1.8-4.65v-9.03c0-1.84-.61-3.42-1.75-4.56Zm-.18,13.59c0,1.36-.48,2.46-1.27,3.2s-1.89,1.14-3.2,1.14h-8.95c-1.32,0-2.41-.39-3.2-1.14-.79-.79-1.18-1.89-1.18-3.25v-8.99c0-1.32.39-2.41,1.18-3.2.75-.75,1.89-1.14,3.2-1.14h9.03c1.32,0,2.41.39,3.2,1.18.75.79,1.18,1.89,1.18,3.16v9.03h0Z"/></g></g></g></g></g></svg>