<svg id="Layer_1" data-name="Layer 1" xmlns="http://www.w3.org/2000/svg" viewBox="0 0 39 39"><defs><style>.cls-1{fill:#d8d8d8;}</style></defs><g id="Page-1"><g id="Group-4-Copy"><circle id="Oval" class="cls-1" cx="19.5" cy="19.5" r="19.5"/><path id="Path" d="M27.25,16.75c0,.17,0,.34,0,.52A11.38,11.38,0,0,1,9.75,26.85c.32,0,.63,0,1,0a8.08,8.08,0,0,0,5-1.71,4,4,0,0,1-3.74-2.78,4.54,4.54,0,0,0,.75.07,4,4,0,0,0,1.05-.14,4,4,0,0,1-3.2-3.92v-.05a4,4,0,0,0,1.81.5,4,4,0,0,1-1.79-3.33,3.91,3.91,0,0,1,.55-2,11.36,11.36,0,0,0,8.24,4.18,4.71,4.71,0,0,1-.1-.92,4,4,0,0,1,6.92-2.73,7.74,7.74,0,0,0,2.54-1A4,4,0,0,1,27,15.3a8,8,0,0,0,2.3-.62A8.55,8.55,0,0,1,27.25,16.75Z"/></g></g></svg>