<svg id="Layer_1" data-name="Layer 1" xmlns="http://www.w3.org/2000/svg" viewBox="0 0 39 39"><defs><style>.cls-1{fill:#d8d8d8;}</style></defs><g id="Page-1"><g id="Group-4-Copy"><circle id="Oval-Copy-2" class="cls-1" cx="19.5" cy="19.5" r="19.5"/><path id="Shape" d="M128.56,14.35a2.63,2.63,0,0,0-1.86-1.9c-1.63-.45-8.2-.45-8.2-.45s-6.57,0-8.2.45a2.63,2.63,0,0,0-1.86,1.9,29,29,0,0,0-.44,5.17,28.76,28.76,0,0,0,.44,5.16,2.62,2.62,0,0,0,1.86,1.87c1.63.45,8.2.45,8.2.45s6.57,0,8.2-.45a2.62,2.62,0,0,0,1.86-1.87,28.76,28.76,0,0,0,.44-5.16A29,29,0,0,0,128.56,14.35ZM116,23V17l5,3Z" transform="translate(-98.72)"/></g></g></svg>