<svg version="1.1" id="Layer_1" xmlns="http://www.w3.org/2000/svg" x="0" y="0" viewBox="0 0 73.3 72.9" xml:space="preserve"><title>Asset 2</title><g id="abce38b7-54b0-492b-bc2f-88ea3fa9ef43"><g id="add85efb-1330-4f3c-8dd7-0df3e7237777"><path d="M34.7 1.2L.2 69.8c-.5 1.1-.1 2.4.9 2.9.3.2.6.2 1 .2h69c1.2 0 2.2-1 2.2-2.1 0-.3-.1-.7-.2-1L38.6 1.2c-.5-1.1-1.8-1.5-2.9-1-.4.2-.8.6-1 1z" fill="#fcd105"/><path d="M32.2 58.1c-.1-1.1.4-2.2 1.2-2.9.8-.7 1.9-1.1 3-1.1 1.2-.1 2.3.3 3.2 1.1.8.8 1.2 1.8 1.2 2.9.1 1.1-.4 2.2-1.2 3-.9.8-2 1.2-3.2 1.1-1.1 0-2.2-.4-3-1.1-.9-.8-1.3-1.9-1.2-3zm.7-33.3h7V42l-1.4 8.6h-4.3L32.9 42V24.8z" fill="#121212"/></g></g></svg>