<?xml version="1.0" encoding="utf-8"?>
<!-- Generator: Adobe Illustrator 23.0.6, SVG Export Plug-In . SVG Version: 6.00 Build 0)  -->
<svg version="1.1" id="Layer_1" xmlns="http://www.w3.org/2000/svg" xmlns:xlink="http://www.w3.org/1999/xlink" x="0px" y="0px"
	 viewBox="0 0 703 214.7" style="enable-background:new 0 0 703 214.7;" xml:space="preserve">
<style type="text/css">
	.st0{fill:url(#SVGID_1_);}
	.st1{fill:url(#SVGID_2_);}
	.st2{fill:url(#SVGID_3_);}
</style>
<title>Artboard 1</title>
<g>
	<g>
		<linearGradient id="SVGID_1_" gradientUnits="userSpaceOnUse" x1="2.6998" y1="104.6106" x2="146.1601" y2="104.6106">
			<stop  offset="0" style="stop-color:#EDB51D"/>
			<stop  offset="1" style="stop-color:#DD8D28"/>
		</linearGradient>
		<polygon class="st0" points="91.6,5.6 2.7,116.7 57.3,116.7 57.3,203.6 146.2,92.5 91.6,92.5 		"/>
		<linearGradient id="SVGID_2_" gradientUnits="userSpaceOnUse" x1="111.9939" y1="65.0688" x2="146.1601" y2="65.0688">
			<stop  offset="0" style="stop-color:#EDB51D"/>
			<stop  offset="1" style="stop-color:#DD8D28"/>
		</linearGradient>
		<rect x="112" y="57.1" class="st1" width="34.2" height="15.9"/>
		<linearGradient id="SVGID_3_" gradientUnits="userSpaceOnUse" x1="111.9939" y1="32.0444" x2="146.1601" y2="32.0444">
			<stop  offset="0" style="stop-color:#EDB51D"/>
			<stop  offset="1" style="stop-color:#DD8D28"/>
		</linearGradient>
		<rect x="112" y="24.1" class="st2" width="34.2" height="15.9"/>
	</g>
	<g>
		<path d="M210.5,13.3c0-0.8,0.7-1.5,1.5-1.5h45c0.8,0,1.5,0.7,1.5,1.5v1.9c0,0.8-0.7,1.5-1.5,1.5h-41.1v31h35.6
			c0.8,0,1.5,0.7,1.5,1.5v1.9c0,0.8-0.7,1.5-1.5,1.5h-35.6v33.2H257c0.8,0,1.5,0.7,1.5,1.5V89c0,0.8-0.7,1.5-1.5,1.5h-45
			c-0.8,0-1.5-0.7-1.5-1.5V13.3z"/>
		<path d="M277.7,13.3c0-0.8,0.7-1.5,1.5-1.5h2.5c0.7,0,1.3,0.7,1.3,1.5v72.4h35.8c1.3,0,1.5,0.7,1.5,1.5v2c0,0.8-0.7,1.2-1.5,1.2
			h-39.6c-0.8,0-1.5-0.7-1.5-1.5V13.3z"/>
		<path d="M332.7,13.3c0-0.8,0.7-1.5,1.5-1.5h45c0.8,0,1.5,0.7,1.5,1.5v1.9c0,0.8-0.7,1.5-1.5,1.5H338v31h35.6
			c0.8,0,1.5,0.7,1.5,1.5v1.9c0,0.8-0.7,1.5-1.5,1.5H338v33.2h41.1c0.8,0,1.5,0.7,1.5,1.5V89c0,0.8-0.7,1.5-1.5,1.5h-45
			c-0.8,0-1.5-0.7-1.5-1.5V13.3z"/>
		<path d="M434.5,10.7c11.5,0,20,3.8,27.3,10.4c0.6,0.6,0.7,1.5,0.1,2l-1.8,1.9c-0.7,0.7-1.2,0.6-1.9-0.1
			c-6.4-5.7-14.5-9.2-23.7-9.2c-19.7,0-35,16.1-35,35.5c0,19.3,15.4,35.3,35,35.3c9.7,0,17-3.8,23.7-9.4c0.7-0.6,1.3-0.6,1.8-0.2
			l1.9,1.9c0.6,0.5,0.6,1.3,0,1.9c-7.6,7.4-17.4,10.9-27.4,10.9c-22.5,0-40.7-17.7-40.7-40.3C393.9,28.8,412.1,10.7,434.5,10.7z"/>
		<path d="M492,16.7h-21.5c-1.1,0-1.5-0.7-1.5-1.7v-1.7c0-0.9,0.7-1.5,1.5-1.5h48.3c0.9,0,1.5,0.7,1.5,1.5v1.9
			c0,0.8-0.6,1.5-1.5,1.5h-21.6V89c0,0.8-0.7,1.5-1.8,1.5h-2c-0.8,0-1.5-0.7-1.5-1.5V16.7z"/>
		<path d="M533.2,13.3c0-0.8,0.6-1.5,1.5-1.5h27.9c13.7,0,25,10.3,25,24c0,11.3-7.9,20.4-18.5,23.5l16.4,29.1c0.6,0.9,0.3,2-0.8,2
			h-3.5c-0.8,0-1.2-0.3-1.6-1L563.3,60c-1.5,0.1-2.7,0.1-4.2,0.1h-20.7V89c0,0.8-0.7,1.5-1.8,1.5h-2c-0.8,0-1.5-0.7-1.5-1.5V13.3z
			 M562.3,55.4c10.8,0,19.9-8.4,19.9-19.5c0-10.7-9.1-18.9-20-18.9h-23.6v38.4H562.3z"/>
		<path d="M606.2,13.3c0-0.8,0.7-1.5,1.5-1.5h2.5c0.8,0,1.5,0.7,1.5,1.5V89c0,0.9-0.8,1.5-1.6,1.5h-2.4c-0.8,0-1.5-0.7-1.5-1.5V13.3
			z"/>
		<path d="M670.4,10.7c11.5,0,20,3.8,27.3,10.4c0.6,0.6,0.7,1.5,0.1,2l-1.8,1.9c-0.7,0.7-1.2,0.6-1.9-0.1
			c-6.4-5.7-14.5-9.2-23.7-9.2c-19.7,0-35,16.1-35,35.5c0,19.3,15.4,35.3,35,35.3c9.7,0,17-3.8,23.7-9.4c0.7-0.6,1.3-0.6,1.8-0.2
			l1.9,1.9c0.6,0.5,0.6,1.3,0,1.9c-7.6,7.4-17.4,10.9-27.4,10.9c-22.5,0-40.7-17.7-40.7-40.3C629.8,28.8,648,10.7,670.4,10.7z"/>
		<path d="M252.4,111.6c13.5,0,23.5,4.2,32.6,12.5c1.2,1.1,1.2,2.7,0.1,3.8l-10.5,10.9c-0.9,0.9-2.4,0.9-3.4,0
			c-5-4.5-11.6-6.9-18.2-6.9c-15.2,0-26.4,12.7-26.4,27.8c0,15,11.3,27.4,26.6,27.4c6.3,0,13.2-2.3,18.1-6.5
			c0.9-0.8,2.7-0.8,3.5,0.1l10.5,11.2c0.9,0.9,0.8,2.7-0.1,3.6c-9.2,8.9-20.8,13.1-32.8,13.1c-27,0-48.7-21.4-48.7-48.4
			C203.8,133.3,225.5,111.6,252.4,111.6z"/>
		<path d="M301.4,115.5c0-1.3,1.2-2.6,2.6-2.6h16.2c1.3,0,2.6,1.2,2.6,2.6v89.3c0,1.3-1.2,2.6-2.6,2.6h-16.2c-1.3,0-2.6-1.2-2.6-2.6
			V115.5z"/>
		<path d="M358,132.7h-19.3c-1.5,0-2.6-1.2-2.6-2.6v-14.7c0-1.3,1.1-2.6,2.6-2.6h59.9c1.5,0,2.6,1.2,2.6,2.6v14.7
			c0,1.3-1.1,2.6-2.6,2.6h-19.3v72c0,1.3-1.2,2.6-2.6,2.6h-16.2c-1.3,0-2.6-1.2-2.6-2.6V132.7z"/>
		<path d="M414.6,115.5c0-1.3,1.2-2.6,2.6-2.6h16.2c1.3,0,2.6,1.2,2.6,2.6v89.3c0,1.3-1.2,2.6-2.6,2.6h-16.2c-1.3,0-2.6-1.2-2.6-2.6
			V115.5z"/>
		<path d="M450.6,202.3l35.9-69.3v-0.3h-29.4c-1.3,0-2.6-1.2-2.6-2.6v-14.7c0-1.3,1.2-2.6,2.6-2.6h57.3c1.4,0,2.6,1.2,2.6,2.6v1.8
			l-34.7,70v0.3h29.4c1.5,0,2.6,1.2,2.6,2.6v14.7c0,1.3-1.1,2.6-2.6,2.6h-58.5c-1.3,0-2.6-1.2-2.6-2.6V202.3z"/>
		<path d="M532.1,115.5c0-1.3,1.1-2.6,2.6-2.6h55.8c1.5,0,2.6,1.2,2.6,2.6v14.7c0,1.3-1.1,2.6-2.6,2.6h-37.3v16.7h30.7
			c1.3,0,2.6,1.2,2.6,2.6v14.7c0,1.5-1.2,2.6-2.6,2.6h-30.7v18.2h37.3c1.5,0,2.6,1.2,2.6,2.6v14.7c0,1.3-1.1,2.6-2.6,2.6h-55.8
			c-1.5,0-2.6-1.2-2.6-2.6V115.5z"/>
		<path d="M611,114c0-1.3,1.2-2.4,2.6-2.4h3.4l53.8,51.8h0.1v-47.9c0-1.3,1.1-2.6,2.6-2.6h16.2c1.3,0,2.6,1.2,2.6,2.6v90.7
			c0,1.3-1.2,2.4-2.6,2.4h-2.2c-0.4,0-1.5-0.4-1.8-0.7l-53.3-53.5h-0.1v50.3c0,1.3-1.1,2.6-2.6,2.6h-16c-1.3,0-2.6-1.2-2.6-2.6
			L611,114z"/>
	</g>
</g>
</svg>
